# xmcd CD Database Entry
#
# Track frame offsets:
# 150
# 10014
# 20080
# 32117
# 45561
# 56753
# 67782
# 78992
# 89535
# 99572
# 112574
# 123126
# 133734
# 144647
# 157444
# 168219
# 176916
# 189000
# 207054
# 219149
# 235849
# 247495
# 257876
# 270197
# 287427
#
# Disc length: 3963 seconds
#
# Revision: 1
# Processed by: cddbd v1.4PL0 Copyright (c) Steve Scherf et al.
# Submitted via: tcd 2.0b
#
DISCID=550f7919
DTITLE=John Lee Hooker - Blues Before Sunrise
DYEAR=1900
DGENRE=
TTITLE0=Dusty Road
TTITLE1=Dimples
TTITLE2=Whiskey and Wimmen
TTITLE3=I'm Going Upstairs
TTITLE4=Boom Boom
TTITLE5=Good Rockin' Mama
TTITLE6=What Do You Say?
TTITLE7=Keep Your Hands To Yourself
TTITLE8=I Wanna Walk
TTITLE9=I'm So Excited
TTITLE10=Want Ad Blues
TTITLE11=Let's Make It
TTITLE12=Send Me Your Pillow
TTITLE13=She Shot Me Down
TTITLE14=I Want To Shout
TTITLE15=Hobo Blues
TTITLE16=I Want To Hug You
TTITLE17=House Rent Boogie
TTITLE18=I'm In The Mood
TTITLE19=When My First Wife Left Me
TTITLE20=Little Wheel
TTITLE21=Old Time Shimmy
TTITLE22=Crawling King Snake
TTITLE23=Blues Before Sunrise
TTITLE24=I'm Leaving (Baby)
EXTD=2002
EXTT0=Hooker
EXTT1=Hooker/Bracken\n
EXTT2=Hooker\n
EXTT3=Burnett\n
EXTT4=Hooker\n
EXTT5=Hooker\n
EXTT6=Hooker\n
EXTT7=Hooker\n
EXTT8=Hooker\n
EXTT9=Hooker\n
EXTT10=Hooker\n
EXTT11=Hooker
EXTT12=Hooker\n
EXTT13=Hooker\n
EXTT14=Hooker\n
EXTT15=Hooker/Josea\n
EXTT16=Hooker/Ling\n
EXTT17=Hooker\n
EXTT18=Hooker/Besman\n
EXTT19=Hollins\n
EXTT20=Hooker/Bracken\n
EXTT21=Hooker\n
EXTT22=Hollins\n
EXTT23=Carr/Hooker\n
EXTT24=Hooker\n
PLAYORDER=
